<svg width="74" height="74" viewBox="0 0 74 74" fill="none" xmlns="http://www.w3.org/2000/svg">
<rect width="74" height="74" rx="37" fill="url(#paint0_linear_1101_435)"/>
<g clip-path="url(#clip0_1101_435)">
<path d="M41.6876 51.7202C42.6564 51.7202 43.4448 50.9318 43.4448 49.963C43.4448 48.9942 42.6564 48.2058 41.6876 48.2058C40.9249 48.2058 40.2806 48.6972 40.0381 49.3772H37.5874V45.8628H40.0381C40.2806 46.5429 40.9249 47.0343 41.6876 47.0343C42.6564 47.0343 43.4448 46.2459 43.4448 45.2771C43.4448 44.3083 42.6564 43.5199 41.6876 43.5199C40.9249 43.5199 40.2806 44.0113 40.0381 44.6913H37.5874V41.1769H40.0381C40.2806 41.8569 40.9249 42.3484 41.6876 42.3484C42.6564 42.3484 43.4448 41.56 43.4448 40.5912C43.4448 39.6224 42.6564 38.8339 41.6876 38.8339C40.9249 38.8339 40.2806 39.3254 40.0381 40.0054H37.5874V38.8339H36.4159V36.3832C37.0959 36.1407 37.5874 35.4964 37.5874 34.7338C37.5874 33.765 36.799 32.9766 35.8302 32.9766C34.8614 32.9766 34.073 33.765 34.073 34.7338C34.073 35.4964 34.5644 36.1407 35.2444 36.3832V38.8339H31.73V36.3832C32.41 36.1407 32.9015 35.4964 32.9015 34.7338C32.9015 33.765 32.1131 32.9766 31.1443 32.9766C30.1754 32.9766 29.387 33.765 29.387 34.7338C29.387 35.4964 29.8785 36.1407 30.5585 36.3832V38.8339H27.0441V36.3832C27.7241 36.1407 28.2156 35.4964 28.2156 34.7338C28.2156 33.765 27.4272 32.9766 26.4584 32.9766C25.4895 32.9766 24.7011 33.765 24.7011 34.7338C24.7011 35.4964 25.1926 36.1407 25.8726 36.3832V38.8339H24.7011V40.0054H22.2504C22.0079 39.3254 21.3636 38.8339 20.601 38.8339C19.6322 38.8339 18.8438 39.6224 18.8438 40.5912C18.8438 41.56 19.6322 42.3484 20.601 42.3484C21.3636 42.3484 22.0079 41.8569 22.2504 41.1769H24.7011V44.6913H22.2504C22.0079 44.0113 21.3636 43.5199 20.601 43.5199C19.6322 43.5199 18.8438 44.3083 18.8438 45.2771C18.8438 46.2459 19.6322 47.0343 20.601 47.0343C21.3636 47.0343 22.0079 46.5429 22.2504 45.8628H24.7011V49.3772H22.2504C22.0079 48.6972 21.3636 48.2058 20.601 48.2058C19.6322 48.2058 18.8438 48.9942 18.8438 49.963C18.8438 50.9318 19.6322 51.7202 20.601 51.7202C21.3636 51.7202 22.0079 51.2288 22.2504 50.5487H24.7011V51.7202H25.8726V54.1709C25.1926 54.4134 24.7011 55.0577 24.7011 55.8204C24.7011 56.7892 25.4895 57.5776 26.4584 57.5776C27.4272 57.5776 28.2156 56.7892 28.2156 55.8204C28.2156 55.0577 27.7241 54.4134 27.0441 54.1709V51.7202H30.5585V54.1709C29.8785 54.4134 29.387 55.0577 29.387 55.8204C29.387 56.7892 30.1754 57.5776 31.1443 57.5776C32.1131 57.5776 32.9015 56.7892 32.9015 55.8204C32.9015 55.0577 32.41 54.4134 31.73 54.1709V51.7202H35.2444V54.1709C34.5644 54.4134 34.073 55.0577 34.073 55.8204C34.073 56.7892 34.8614 57.5776 35.8302 57.5776C36.799 57.5776 37.5874 56.7892 37.5874 55.8204C37.5874 55.0577 37.0959 54.4134 36.4159 54.1709V51.7202H37.5874V50.5487H40.0381C40.2806 51.2288 40.9249 51.7202 41.6876 51.7202ZM41.6876 49.3772C42.0109 49.3772 42.2733 49.6397 42.2733 49.963C42.2733 50.2863 42.0109 50.5487 41.6876 50.5487C41.3642 50.5487 41.1018 50.2863 41.1018 49.963C41.1018 49.6397 41.3642 49.3772 41.6876 49.3772ZM41.6876 44.6913C42.0109 44.6913 42.2733 44.9537 42.2733 45.2771C42.2733 45.6004 42.0109 45.8628 41.6876 45.8628C41.3642 45.8628 41.1018 45.6004 41.1018 45.2771C41.1018 44.9537 41.3642 44.6913 41.6876 44.6913ZM41.6876 40.0054C42.0109 40.0054 42.2733 40.2678 42.2733 40.5912C42.2733 40.9145 42.0109 41.1769 41.6876 41.1769C41.3642 41.1769 41.1018 40.9145 41.1018 40.5912C41.1018 40.2678 41.3642 40.0054 41.6876 40.0054ZM20.601 41.1769C20.2776 41.1769 20.0152 40.9145 20.0152 40.5912C20.0152 40.2678 20.2776 40.0054 20.601 40.0054C20.9243 40.0054 21.1867 40.2678 21.1867 40.5912C21.1867 40.9145 20.9243 41.1769 20.601 41.1769ZM20.601 45.8628C20.2776 45.8628 20.0152 45.6004 20.0152 45.2771C20.0152 44.9537 20.2776 44.6913 20.601 44.6913C20.9243 44.6913 21.1867 44.9537 21.1867 45.2771C21.1867 45.6004 20.9243 45.8628 20.601 45.8628ZM20.601 50.5487C20.2776 50.5487 20.0152 50.2863 20.0152 49.963C20.0152 49.6397 20.2776 49.3772 20.601 49.3772C20.9243 49.3772 21.1867 49.6397 21.1867 49.963C21.1867 50.2863 20.9243 50.5487 20.601 50.5487ZM35.8302 34.148C36.1535 34.148 36.4159 34.411 36.4159 34.7338C36.4159 35.0565 36.1535 35.3195 35.8302 35.3195C35.5068 35.3195 35.2444 35.0565 35.2444 34.7338C35.2444 34.411 35.5068 34.148 35.8302 34.148ZM31.1443 34.148C31.4676 34.148 31.73 34.411 31.73 34.7338C31.73 35.0565 31.4676 35.3195 31.1443 35.3195C30.8209 35.3195 30.5585 35.0565 30.5585 34.7338C30.5585 34.411 30.8209 34.148 31.1443 34.148ZM26.4584 34.148C26.7817 34.148 27.0441 34.411 27.0441 34.7338C27.0441 35.0565 26.7817 35.3195 26.4584 35.3195C26.135 35.3195 25.8726 35.0565 25.8726 34.7338C25.8726 34.411 26.135 34.148 26.4584 34.148ZM26.4584 56.4061C26.135 56.4061 25.8726 56.1437 25.8726 55.8204C25.8726 55.497 26.135 55.2346 26.4584 55.2346C26.7817 55.2346 27.0441 55.497 27.0441 55.8204C27.0441 56.1437 26.7817 56.4061 26.4584 56.4061ZM31.1443 56.4061C30.8209 56.4061 30.5585 56.1437 30.5585 55.8204C30.5585 55.497 30.8209 55.2346 31.1443 55.2346C31.4676 55.2346 31.73 55.497 31.73 55.8204C31.73 56.1437 31.4676 56.4061 31.1443 56.4061ZM35.8302 56.4061C35.5068 56.4061 35.2444 56.1437 35.2444 55.8204C35.2444 55.497 35.5068 55.2346 35.8302 55.2346C36.1535 55.2346 36.4159 55.497 36.4159 55.8204C36.4159 56.1437 36.1535 56.4061 35.8302 56.4061ZM36.4159 50.5487H25.8726V40.0054H36.4159V50.5487Z" fill="white"/>
<path d="M52.5215 30.6329V30.6335C52.303 29.7866 51.9668 28.9771 51.5175 28.2179L53.3854 26.3494L50.0719 23.0365L48.2034 24.905C47.4443 24.4552 46.6354 24.119 45.7884 23.9005V21.2617H41.1025V23.9005C40.2555 24.119 39.4466 24.4552 38.6875 24.9044L36.819 23.0359L33.5055 26.3489L35.3734 28.2174C34.9241 28.9765 34.5879 29.786 34.3694 30.6329H32.3164V31.8044H35.3142L35.4097 31.3353C35.6176 30.3096 36.02 29.3414 36.6058 28.4563L36.8699 28.0575L35.1613 26.3489L36.8184 24.6924L38.527 26.401L38.9259 26.1368C39.8103 25.5511 40.7786 25.1487 41.8048 24.9407L42.274 24.8459V22.4332H44.6169V24.8459L45.0861 24.9413C46.1123 25.1493 47.0805 25.5517 47.965 26.1374L48.3639 26.4016L50.0725 24.693L51.7295 26.3494L50.0209 28.058L50.2851 28.4569C50.8708 29.342 51.2732 30.3102 51.4812 31.3358L51.5767 31.805H53.9887V34.148H51.5767L51.4812 34.6171C51.2732 35.6428 50.8708 36.611 50.2851 37.4955L50.0209 37.8949L51.7295 39.6035L50.0725 41.2606L48.3639 39.552L47.965 39.8162C47.0799 40.4019 46.1117 40.8049 45.0861 41.0122L44.6169 41.1077V44.1055H45.7884V42.0525C46.6348 41.8346 47.4443 41.4984 48.2034 41.0486L50.0719 42.9165L53.3854 39.603L51.5175 37.7344C51.9668 36.9753 52.303 36.1658 52.5215 35.3189H55.1602V30.6329H52.5215Z" fill="white"/>
<path d="M43.4433 37.6605V38.832C46.6731 38.832 49.3007 36.2043 49.3007 32.9746C49.3007 29.7448 46.6731 27.1172 43.4433 27.1172C40.2136 27.1172 37.5859 29.7448 37.5859 32.9746H38.7574C38.7574 30.3909 40.8596 28.2887 43.4433 28.2887C46.027 28.2887 48.1292 30.3909 48.1292 32.9746C48.1292 35.5583 46.027 37.6605 43.4433 37.6605Z" fill="white"/>
<path d="M35.2433 41.1758H27.043V42.3473H35.2433V41.1758Z" fill="white"/>
<path d="M35.2457 48.207H34.0742V49.3785H35.2457V48.207Z" fill="white"/>
<path d="M32.9004 48.207H27.043V49.3785H32.9004V48.207Z" fill="white"/>
<path d="M40.3984 56.0641L40.6316 57.2127C47.7834 55.7606 53.3427 50.2014 54.7947 43.0495L53.6461 42.8164C52.2889 49.5067 47.0887 54.7069 40.3984 56.0641Z" fill="white"/>
<path d="M33.6033 22.773L33.3702 21.625C26.2183 23.077 20.6591 28.6363 19.207 35.7882L20.3557 36.0207C21.7128 29.3316 26.913 24.1308 33.6033 22.773Z" fill="white"/>
</g>
<defs>
<linearGradient id="paint0_linear_1101_435" x1="37" y1="0" x2="37" y2="74" gradientUnits="userSpaceOnUse">
<stop stop-color="#92EFC3"/>
<stop offset="1" stop-color="#2F8F5B"/>
</linearGradient>
<clipPath id="clip0_1101_435">
<rect width="36.3158" height="36.3158" fill="white" transform="translate(18.8438 21.2617)"/>
</clipPath>
</defs>
</svg>
